<?xml version="1.0" encoding="UTF-8"?>
<!--
  This editable master separates the shared Sanicek badge from the mod-specific
  glyph. Future mod icons can retain the medallion and maker's mark while
  replacing only the group named "mod-glyph" with one strong silhouette.
-->
<svg xmlns="http://www.w3.org/2000/svg" width="256" height="256" viewBox="0 0 256 256">
  <defs>
    <!-- Clipping is a final invariant: replaceable glyphs can never cross the rim. -->
    <clipPath id="badge-interior">
      <circle cx="128" cy="128" r="101"/>
    </clipPath>
  </defs>

  <!-- The transparent corners let RimWorld present the artwork as a true badge. -->
  <circle cx="128" cy="128" r="116" fill="#17191b" stroke="#e5e4df" stroke-width="8"/>
  <circle cx="128" cy="128" r="103" fill="none" stroke="#5e6366" stroke-width="3"/>

  <g clip-path="url(#badge-interior)">
    <!-- A curved cap gives every icon the same badge-like header. Its smooth,
         open S channel is negative space, not a second symbol laid on top. -->
    <path id="maker-cap"
          d="M38 82 C50 45 84 24 128 24 C172 24 206 45 218 82
             C194 101 164 110 128 110 C92 110 62 101 38 82 Z"
          fill="#e5e4df"/>
    <path id="maker-mark"
          d="M158 22 C149 39 99 27 99 48
             C99 66 158 53 158 75
             C158 94 119 101 99 87"
          fill="none" stroke="#17191b" stroke-width="16"
          stroke-linecap="round" stroke-linejoin="round"/>

    <!-- Three pipe feeds converge on one loader that presents a single large round. -->
    <g id="mod-glyph" stroke="#0b0c0d" stroke-linejoin="round">
      <g fill="none" stroke-linecap="round">
        <path d="M82 177 V193 H72 V205" stroke="#0b0c0d" stroke-width="24"/>
        <path d="M104 181 V216" stroke="#0b0c0d" stroke-width="24"/>
        <path d="M126 177 V194 H157 V207" stroke="#0b0c0d" stroke-width="24"/>
        <path d="M82 177 V193 H72 V205" stroke="#b8b9b7" stroke-width="13"/>
        <path d="M104 181 V216" stroke="#e5e4df" stroke-width="13"/>
        <path d="M126 177 V194 H157 V207" stroke="#85898a" stroke-width="13"/>
      </g>

      <path d="M76 127 H130 L143 140 V177 L130 190 H76 L63 177 V140 Z"
            fill="#aeb0af" stroke-width="8"/>
      <rect x="77" y="141" width="27" height="35" rx="4"
            fill="#242729" stroke-width="6"/>
      <path d="M99 141 H166 L192 158 L166 175 H99 Z"
            fill="#e5e4df" stroke-width="7"/>
      <path d="M160 142 V174" fill="none" stroke="#747879" stroke-width="6"/>
    </g>
  </g>
</svg>
